<svg xmlns="http://www.w3.org/2000/svg" xmlns:xlink="http://www.w3.org/1999/xlink" height="345.6pt" version="1.1" viewBox="0 0 460.8 345.6" width="460.8pt">
 <defs>
  <style type="text/css">
*{stroke-linecap:butt;stroke-linejoin:round;}
  </style>
 </defs>
 <g id="figure_1">
  <g id="patch_1">
   <path d="M 0 345.6  L 460.8 345.6  L 460.8 0  L 0 0  z " style="fill:#ffffff;"/>
  </g>
  <g id="axes_1">
   <g id="patch_2">
    <path clip-path="url(#p54d3812557)" d="M 159.0984 207.792  L 213.4296 207.792  L 213.4296 124.632  L 159.0984 124.632  z " style="fill:#0000ff;stroke:#0000ff;stroke-linejoin:miter;"/>
   </g>
   <g id="patch_3">
    <path clip-path="url(#p54d3812557)" d="M 213.984 201.6936  L 225.072 201.6936  L 225.072 200.0304  L 213.984 200.0304  z " style="fill:#0000ff;stroke:#0000ff;stroke-linejoin:miter;stroke-width:2;"/>
   </g>
   <g id="patch_4">
    <path clip-path="url(#p54d3812557)" d="M 150.228 207.792  L 148.7727 203.4261  L 150.20028 203.4261  L 150.20028 96.912  L 150.25572 96.912  L 150.25572 203.4261  L 151.6833 203.4261  z " style="stroke:#000000;stroke-linejoin:miter;"/>
   </g>
   <g id="patch_5">
    <path clip-path="url(#p54d3812557)" d="M 150.228 96.912  L 151.6833 101.2779  L 150.25572 101.2779  L 150.25572 207.792  L 150.20028 207.792  L 150.20028 101.2779  L 148.7727 101.2779  z " style="stroke:#000000;stroke-linejoin:miter;"/>
   </g>
   <g id="patch_6">
    <path clip-path="url(#p54d3812557)" d="M 130.824 207.792  L 129.3687 203.4261  L 130.79628 203.4261  L 130.79628 124.632  L 130.85172 124.632  L 130.85172 203.4261  L 132.2793 203.4261  z " style="stroke:#000000;stroke-linejoin:miter;"/>
   </g>
   <g id="patch_7">
    <path clip-path="url(#p54d3812557)" d="M 130.824 124.632  L 132.2793 128.9979  L 130.85172 128.9979  L 130.85172 207.792  L 130.79628 207.792  L 130.79628 128.9979  L 129.3687 128.9979  z " style="stroke:#000000;stroke-linejoin:miter;"/>
   </g>
   <g id="patch_8">
    <path clip-path="url(#p54d3812557)" d="M 213.984 85.824  L 209.6181 87.2793  L 209.6181 85.85172  L 158.544 85.85172  L 158.544 85.79628  L 209.6181 85.79628  L 209.6181 84.3687  z " style="stroke:#000000;stroke-linejoin:miter;"/>
   </g>
   <g id="patch_9">
    <path clip-path="url(#p54d3812557)" d="M 158.544 85.824  L 162.9099 84.3687  L 162.9099 85.79628  L 213.984 85.79628  L 213.984 85.85172  L 162.9099 85.85172  L 162.9099 87.2793  z " style="stroke:#000000;stroke-linejoin:miter;"/>
   </g>
   <g id="line2d_1">
    <path clip-path="url(#p54d3812557)" d="M 158.544 207.792  L 213.984 207.792  L 213.984 96.912  L 158.544 96.912  L 158.544 207.792  " style="fill:none;stroke:#000000;stroke-linecap:square;stroke-width:2;"/>
   </g>
   <g id="line2d_2">
    <path clip-path="url(#p54d3812557)" d="M 213.984 202.248  L 225.072 202.248  L 225.072 199.476  L 213.984 199.476  L 213.984 202.248  " style="fill:none;stroke:#000000;stroke-linecap:square;stroke-width:2;"/>
   </g>
   <g id="line2d_3">
    <path clip-path="url(#p54d3812557)" d="M 150.228 207.792  L 150.228 96.912  " style="fill:none;stroke:#000000;stroke-linecap:square;"/>
   </g>
   <g id="line2d_4">
    <path clip-path="url(#p54d3812557)" d="M 130.824 207.792  L 130.824 124.632  " style="fill:none;stroke:#000000;stroke-linecap:square;"/>
   </g>
   <g id="line2d_5">
    <path clip-path="url(#p54d3812557)" d="M 213.984 85.824  L 158.544 85.824  " style="fill:none;stroke:#000000;stroke-linecap:square;"/>
   </g>
   <g id="line2d_6">
    <path clip-path="url(#p54d3812557)" d="M 225.072 200.862  L 231.12 200.979818  L 237.168 201.333273  L 243.216 201.922364  L 249.264 202.747091  L 255.312 203.807455  L 261.36 205.103455  L 267.408 206.635091  L 273.456 208.402364  L 279.504 210.405273  L 285.552 212.643818  L 291.6 215.118  " style="fill:none;stroke:#0000ff;stroke-linecap:square;stroke-width:2;"/>
   </g>
   <g id="text_1">
    <!-- $H$ -->
    <defs>
     <path d="M 74.796875 60.71875  C 75.703125 64.09375 75.90625 65.09375 83 65.09375  C 84.796875 65.09375 85.796875 65.09375 85.796875 66.890625  C 85.796875 68 84.90625 68 84.296875 68  C 82.5 68 80.40625 67.796875 78.5 67.796875  L 66.703125 67.796875  C 64.796875 67.796875 62.703125 68 60.796875 68  C 60.09375 68 58.90625 68 58.90625 66.09375  C 58.90625 65.09375 59.59375 65.09375 61.5 65.09375  C 67.5 65.09375 67.5 64.296875 67.5 63.203125  C 67.5 63 67.5 62.40625 67.09375 60.921875  L 61 36.890625  L 30.796875 36.890625  L 36.796875 60.71875  C 37.703125 64.09375 37.90625 65.09375 45 65.09375  C 46.796875 65.09375 47.796875 65.09375 47.796875 66.890625  C 47.796875 68 46.90625 68 46.296875 68  C 44.5 68 42.40625 67.796875 40.5 67.796875  L 28.703125 67.796875  C 26.796875 67.796875 24.703125 68 22.796875 68  C 22.09375 68 20.90625 68 20.90625 66.09375  C 20.90625 65.09375 21.59375 65.09375 23.5 65.09375  C 29.5 65.09375 29.5 64.296875 29.5 63.203125  C 29.5 63 29.5 62.40625 29.09375 60.921875  L 15.59375 7.375  C 14.703125 3.890625 14.5 2.890625 7.59375 2.890625  C 5.296875 2.890625 4.59375 2.890625 4.59375 1  C 4.59375 0 5.703125 0 6 0  C 7.796875 0 9.90625 0.1875 11.796875 0.1875  L 23.59375 0.1875  C 25.5 0.1875 27.59375 0 29.5 0  C 30.296875 0 31.40625 0 31.40625 1.890625  C 31.40625 2.890625 30.5 2.890625 29 2.890625  C 22.90625 2.890625 22.90625 3.6875 22.90625 4.6875  C 22.90625 4.78125 22.90625 5.484375 23.09375 6.28125  L 30 34  L 60.296875 34  C 58.59375 27.421875 53.5 6.578125 53.296875 5.984375  C 52.203125 2.984375 50.59375 2.984375 44.703125 2.890625  C 43.5 2.890625 42.59375 2.890625 42.59375 1  C 42.59375 0 43.703125 0 44 0  C 45.796875 0 47.90625 0.1875 49.796875 0.1875  L 61.59375 0.1875  C 63.5 0.1875 65.59375 0 67.5 0  C 68.296875 0 69.40625 0 69.40625 1.890625  C 69.40625 2.890625 68.5 2.890625 67 2.890625  C 60.90625 2.890625 60.90625 3.6875 60.90625 4.6875  C 60.90625 4.78125 60.90625 5.484375 61.09375 6.28125  z " id="CMMI12-72"/>
    </defs>
    <g transform="translate(131.927083 152.352)scale(0.14 -0.14)">
     <use transform="scale(0.996264)" xlink:href="#CMMI12-72"/>
    </g>
   </g>
   <g id="text_2">
    <!-- $h$ -->
    <defs>
     <path d="M 28.09375 66.484375  C 28.203125 66.890625 28.40625 67.484375 28.40625 67.984375  C 28.40625 69 27.40625 69 27.203125 69  C 27.09375 69 22.203125 68.59375 21.703125 68.484375  C 20 68.390625 18.5 68.1875 16.703125 68.09375  C 14.203125 67.890625 13.5 67.796875 13.5 65.984375  C 13.5 64.984375 14.296875 64.984375 15.703125 64.984375  C 20.59375 64.984375 20.703125 64.109375 20.703125 63.125  C 20.703125 62.53125 20.5 61.734375 20.40625 61.4375  L 5.90625 3.890625  C 5.5 2.390625 5.5 2.1875 5.5 1.59375  C 5.5 -0.609375 7.203125 -1 8.203125 -1  C 9.90625 -1 11.203125 0.296875 11.703125 1.390625  L 16.203125 19.453125  C 16.703125 21.640625 17.296875 23.734375 17.796875 25.9375  C 18.90625 30.125 18.90625 30.21875 20.796875 33.109375  C 22.703125 36.015625 27.203125 41.984375 34.90625 41.984375  C 38.90625 41.984375 40.296875 39 40.296875 35.015625  C 40.296875 29.421875 36.40625 18.546875 34.203125 12.5625  C 33.296875 10.171875 32.796875 8.875 32.796875 7.078125  C 32.796875 2.59375 35.90625 -1 40.703125 -1  C 50 -1 53.5 13.65625 53.5 14.265625  C 53.5 14.765625 53.09375 15.15625 52.5 15.15625  C 51.59375 15.15625 51.5 14.859375 51 13.15625  C 48.703125 5.1875 45 1 41 1  C 40 1 38.40625 1.09375 38.40625 4.28125  C 38.40625 6.875 39.59375 10.078125 40 11.171875  C 41.796875 15.953125 46.296875 27.734375 46.296875 33.515625  C 46.296875 39.5 42.796875 44 35.203125 44  C 29.5 44 24.5 41.296875 20.40625 36.109375  z " id="CMMI12-104"/>
    </defs>
    <g transform="translate(111.319953 166.212)scale(0.14 -0.14)">
     <use transform="scale(0.996264)" xlink:href="#CMMI12-104"/>
    </g>
   </g>
   <g id="text_3">
    <!-- $l$ -->
    <defs>
     <path d="M 25.40625 66.484375  C 25.5 66.890625 25.703125 67.484375 25.703125 67.984375  C 25.703125 69 24.703125 69 24.5 69  C 24.40625 69 20.796875 68.6875 19 68.484375  C 17.296875 68.390625 15.796875 68.1875 14 68.09375  C 11.59375 67.890625 10.90625 67.796875 10.90625 65.984375  C 10.90625 64.984375 11.90625 64.984375 12.90625 64.984375  C 18 64.984375 18 64.09375 18 63.109375  C 18 62.703125 18 62.515625 17.5 60.71875  L 5.09375 11.421875  C 4.796875 10.328125 4.59375 9.53125 4.59375 7.953125  C 4.59375 2.984375 8.296875 -1 13.40625 -1  C 16.703125 -1 18.90625 1.1875 20.5 4.265625  C 22.203125 7.546875 23.59375 13.8125 23.59375 14.203125  C 23.59375 14.703125 23.203125 15.109375 22.59375 15.109375  C 21.703125 15.109375 21.59375 14.609375 21.203125 13.109375  C 19.40625 6.265625 17.59375 1 13.59375 1  C 10.59375 1 10.59375 4.171875 10.59375 5.5625  C 10.59375 5.96875 10.59375 8.046875 11.296875 10.828125  z " id="CMMI12-108"/>
    </defs>
    <g transform="translate(186.264 81.9432)scale(0.14 -0.14)">
     <use transform="scale(0.996264)" xlink:href="#CMMI12-108"/>
    </g>
   </g>
  </g>
 </g>
 <defs>
  <clipPath id="p54d3812557">
   <rect height="266.112" width="232.848" x="119.736" y="41.472"/>
  </clipPath>
 </defs>
</svg>